PathFileType	3	(X/Y/Z)	F:\ViconData\AntennenMessung\Messung1\Session1\ID23.trc
DataRate	CameraRate	NumFrames	NumMarkers	Units	OrigDataRate	OrigDataStartFrame	OrigNumFrames
120.0	120.0	6	70	mm	120.0	626	1000	
Frame#	Time	Ashort			Along			Atop			A4			Bshort			Blong			Btop			B4			Cshort			Clong			Ctop			C4			Dshort			Dlong			Dtop			D4			Eshort			Elong			Etop			E4			Fshort			Flong			Ftop			F4			Gshort			Glong			Gtop			G4			Hshort			Hlong			Htop			H4			I1			I2			I3			I4			I5			WandAshort			WandAlong			WandAtop			WandA4			WandA15			WandBshort			WandB4			WandB5			WandBtop			WandBlong			WandCshort			WandClong			WandCtop			WandC4			WandC5			Acenter			Aantenna			Bcenter			Bantenna			Ccenter			Cantenna			Dcenter			Dantenna			Ecenter			Eantenna			Fcenter			Fantenna			Gcenter			Gantenna			Hcenter			Hantenna			Icenter			Iantenna			
		X1	Y1	Z1	X2	Y2	Z2	X3	Y3	Z3	X4	Y4	Z4	X5	Y5	Z5	X6	Y6	Z6	X7	Y7	Z7	X8	Y8	Z8	X9	Y9	Z9	X10	Y10	Z10	X11	Y11	Z11	X12	Y12	Z12	X13	Y13	Z13	X14	Y14	Z14	X15	Y15	Z15	X16	Y16	Z16	X17	Y17	Z17	X18	Y18	Z18	X19	Y19	Z19	X20	Y20	Z20	X21	Y21	Z21	X22	Y22	Z22	X23	Y23	Z23	X24	Y24	Z24	X25	Y25	Z25	X26	Y26	Z26	X27	Y27	Z27	X28	Y28	Z28	X29	Y29	Z29	X30	Y30	Z30	X31	Y31	Z31	X32	Y32	Z32	X33	Y33	Z33	X34	Y34	Z34	X35	Y35	Z35	X36	Y36	Z36	X37	Y37	Z37	X38	Y38	Z38	X39	Y39	Z39	X40	Y40	Z40	X41	Y41	Z41	X42	Y42	Z42	X43	Y43	Z43	X44	Y44	Z44	X45	Y45	Z45	X46	Y46	Z46	X47	Y47	Z47	X48	Y48	Z48	X49	Y49	Z49	X50	Y50	Z50	X51	Y51	Z51	X52	Y52	Z52	X53	Y53	Z53	X54	Y54	Z54	X55	Y55	Z55	X56	Y56	Z56	X57	Y57	Z57	X58	Y58	Z58	X59	Y59	Z59	X60	Y60	Z60	X61	Y61	Z61	X62	Y62	Z62	X63	Y63	Z63	X64	Y64	Z64	X65	Y65	Z65	X66	Y66	Z66	X67	Y67	Z67	X68	Y68	Z68	X69	Y69	Z69	X70	Y70	Z70	
626	5.2083333	-1038.1786	214.58635	-1643.9871	-1109.4708	204.47412	-1599.3877	-1064.0714	172.86971	-1625.3795	-1054.1196	262.38403	-1634.8597	-1352.564	235.1544	1003.3909	-1281.358	227.37776	1052.2179	-1322.5052	194.0273	1020.9266	-1284.327	288.01434	1052.5903	813.98621	187.70766	1209.3827	892.23248	178.70441	1178.8486	844.53992	145.28166	1198.4875	860.95886	292.5538	1168.379	1115.8687	210.02901	-1401.8116	1056.3339	194.13069	-1460.2346	1094.937	162.16856	-1423.823	1069.6613	239.5631	-1426.262	-1204.7152	1686.12	-1562.8459	-1129.1176	1688.3918	-1605.9727	-1173.1667	1724.3262	-1581.8359	-1133.9932	1581.0946	-1603.8911	-1239.5634	1699.0837	1119.5615	-1308.4493	1699.6345	1070.3845	-1270.4139	1736.2727	1096.9449	-1245.5391	1592.7579	1110.7407	988.82385	1664.1591	1162.0957	957.32068	1700.4988	1183.8328	921.82709	1662.288	1214.9788	939.8056	1659.4663	1159.707	999.06506	1668.4495	-1579.3989	1058.9338	1670.1965	-1518.6754	1024.9857	1708.095	-1551.1383	1059.2969	1672.2461	-1585.51	-231.38983	1638.907	-185.79642	-228.89113	1638.3556	-270.25159	-229.72139	1675.4594	-223.68843	-196.30432	1638.4714	-221.53381	-278.58185	1639.7222	-223.84703																																														-1068.9623	210.21991	-1624.729	-1074.0253	248.884	-1624.0558	-1321.1396	231.72244	1024.939	-1319.7357	270.47821	1029.0642	848.03711	183.78966	1196.0948	851.55774	222.55566	1193.6863	1088.6787	202.76813	-1428.4938	1082.7754	241.06613	-1432.8998	-1171.8958	1687.1062	-1581.5686	-1170.5648	1648.1299	-1581.2886	-1270.8899	1699.3341	1097.1978	-1271.3923	1660.3383	1097.4647	952.72205	1705.8033	1187.0057	972.71906	1733.969	1168.9	1026.5292	1669.2509	-1551.5425	1028.0778	1630.2837	-1551.9484	-230.27538	1638.661	-223.46461	-230.86243	1599.6661	-223.22745
627	5.2166667	-1038.1702	214.58913	-1643.9689	-1109.5796	204.11996	-1599.4731	-1063.6376	172.86551	-1625.7058	-1054.1152	262.31448	-1634.8698	-1352.6139	235.16005	1003.4045	-1281.3853	227.32684	1052.1978	-1322.5132	194.06523	1020.8405	-1284.3441	288.01718	1052.5979	813.99042	187.73631	1209.4397	892.33838	178.80162	1178.811	844.55383	145.41701	1198.2797	861.02014	292.54251	1168.3954	1115.876	210.01689	-1401.8101	1056.3447	194.20534	-1460.2939	1094.9742	162.1965	-1423.8715	1069.6743	239.57387	-1426.2551	-1204.6985	1686.1156	-1562.8722	-1129.1038	1688.3761	-1605.9288	-1173.1689	1724.3365	-1581.84	-1133.9891	1581.0923	-1603.8951	-1239.5411	1699.0466	1119.5403	-1308.5801	1699.6342	1070.4232	-1270.4371	1736.3024	1096.9503	-1245.5122	1592.7014	1110.7086	988.83557	1664.1799	1162.092	957.31805	1700.5222	1183.8234	921.7149	1662.3021	1214.9176	939.80341	1659.4939	1159.684	999.07709	1668.472	-1579.4155	1058.9314	1670.1929	-1518.6879	1025.0002	1708.101	-1551.1184	1059.3113	1672.2002	-1585.4117	-231.39474	1638.8846	-185.80841	-228.90257	1638.3502	-270.23975	-229.70862	1675.4664	-223.69098	-196.2773	1638.5038	-221.5278	-278.60599	1639.7471	-223.86325																																														-1068.6465	210.12105	-1624.9786	-1073.8422	248.76605	-1624.2245	-1321.1803	231.70319	1024.9371	-1319.8081	270.4502	1029.1544	848.08813	183.84784	1196.1097	851.65417	222.62273	1193.9207	1088.7222	202.80479	-1428.4861	1082.8245	241.10977	-1432.8389	-1171.8939	1687.0964	-1581.5565	-1170.5597	1648.1204	-1581.2601	-1270.934	1699.3137	1097.2061	-1271.4578	1660.3181	1097.476	952.69354	1705.8545	1187.0118	972.73181	1734.0261	1168.9612	1026.5481	1669.2617	-1551.5435	1028.1013	1630.295	-1551.9701	-230.28293	1638.6462	-223.47485	-230.89117	1599.6517	-223.24599
628	5.225	-1038.177	214.58875	-1643.9904	-1109.5695	204.17117	-1599.5173	-1063.8601	172.44011	-1625.4197	-1054.0991	262.33884	-1634.8237	-1352.6179	235.11063	1003.3185	-1281.3125	227.47162	1052.1515	-1322.4872	194.07812	1020.8444	-1284.2345	288.07278	1052.5183	814.03345	187.8535	1209.3865	892.25861	178.67517	1178.8153	844.51831	145.45473	1198.2773	861.02142	292.53711	1168.3586	1115.8197	209.74478	-1401.6547	1056.3431	194.14943	-1460.2275	1094.8824	161.96324	-1423.692	1069.6792	239.53363	-1426.2582	-1204.718	1686.1233	-1562.8252	-1129.1411	1688.3713	-1605.9255	-1173.1506	1724.3373	-1581.8339	-1133.9833	1581.0978	-1603.9067	-1239.5295	1699.0419	1119.542	-1308.5287	1699.6041	1070.4352	-1270.4261	1736.2889	1096.9465	-1245.5079	1592.6437	1110.6934	988.82336	1664.1719	1162.0879	957.31683	1700.5007	1183.8331	921.91638	1662.2909	1214.9872	939.79639	1659.4357	1159.7086	999.07117	1668.4351	-1579.3805	1058.9315	1670.2014	-1518.6639	1025.0111	1708.1049	-1551.1254	1059.3125	1672.2002	-1585.4082	-231.39032	1638.9144	-185.79562	-228.8947	1638.3712	-270.2565	-229.70297	1675.4772	-223.68462	-196.26584	1638.4939	-221.48897	-278.75601	1639.9132	-223.88097																																														-1068.9727	210.09503	-1624.8065	-1074.2192	248.7354	-1624.1774	-1321.1897	231.74368	1024.8418	-1319.8545	270.50314	1028.9553	848.1535	183.8501	1196.052	851.82349	222.61198	1193.8052	1088.7577	202.64885	-1428.3054	1082.9883	240.97412	-1432.6512	-1171.8818	1687.1	-1581.551	-1170.5537	1648.1237	-1581.2552	-1270.9126	1699.2976	1097.2063	-1271.4257	1660.3019	1097.4806	952.7392	1705.7788	1186.9924	972.70496	1733.9486	1168.8585	1026.5481	1669.2458	-1551.5105	1028.0895	1630.2782	-1551.8966	-230.27727	1638.6721	-223.4648	-230.88573	1599.6776	-223.23193
629	5.2333333	-1038.1892	214.60184	-1643.9756	-1109.5853	204.20679	-1599.5239	-1063.7314	173.02905	-1625.7675	-1054.1123	262.34955	-1634.821	-1352.5161	235.33008	1003.2784	-1281.4011	227.33315	1052.2283	-1322.5743	193.93634	1020.9746	-1284.4352	287.91245	1052.6199	814.00116	187.80783	1209.4143	892.27777	178.80229	1178.7843	844.55341	145.41118	1198.3533	860.97968	292.49756	1168.3716	1115.8568	210.01958	-1401.8098	1056.3707	194.0979	-1460.135	1094.9662	162.19138	-1423.8009	1069.6912	239.58827	-1426.2645	-1204.7102	1686.1237	-1562.8586	-1129.1136	1688.381	-1605.9646	-1173.1656	1724.332	-1581.8351	-1133.9952	1581.0864	-1603.8949	-1239.5377	1699.0374	1119.5426	-1308.4976	1700.0536	1070.069	-1270.3914	1736.2474	1096.9319	-1245.5337	1592.7253	1110.7172	988.83392	1664.1753	1162.1002	957.36072	1700.5028	1183.8499	921.8457	1662.257	1214.9398	939.84015	1659.4846	1159.7307	999.07056	1668.4594	-1579.4041	1058.9563	1670.2072	-1518.6704	1024.9988	1708.0992	-1551.1305	1059.326	1672.2067	-1585.4075	-231.39229	1638.9137	-185.79608	-228.90756	1638.3522	-270.2327	-229.72331	1675.4685	-223.67929	-196.25008	1638.5149	-221.50017	-278.62512	1639.762	-223.88306																																														-1068.6621	210.16504	-1625.0027	-1073.7944	248.81769	-1624.207	-1321.0466	231.79131	1024.9395	-1319.4825	270.54791	1028.9988	848.08856	183.88614	1196.0757	851.65076	222.65526	1193.7806	1088.678	202.74507	-1428.4581	1082.7404	241.03874	-1432.8557	-1171.901	1687.1033	-1581.5667	-1170.577	1648.1267	-1581.2859	-1270.9739	1699.5005	1096.9893	-1271.5923	1660.5054	1097.0502	952.78558	1705.7833	1187.0114	972.80823	1733.9513	1168.9377	1026.5465	1669.2611	-1551.5389	1028.0994	1630.2942	-1551.9487	-230.28421	1638.6632	-223.45096	-230.87848	1599.6685	-223.20906
630	5.2416667	-1038.1798	214.57018	-1643.9744	-1109.558	204.20219	-1599.5094	-1063.7333	173.01872	-1625.7336	-1054.1083	262.34543	-1634.8264	-1352.4893	235.2081	1003.5459	-1281.3171	227.50468	1052.2505	-1322.4901	194.05754	1020.9393	-1284.2932	288.05933	1052.5333	813.98926	187.74113	1209.3433	892.2724	178.71423	1178.8505	844.48608	145.31741	1198.4484	861.07501	292.38242	1168.4484	1115.8799	210.05498	-1401.808	1056.3704	194.10045	-1460.1652	1094.9885	162.17381	-1423.8328	1069.708	239.5468	-1426.2504	-1204.7089	1686.1178	-1562.8386	-1129.1622	1688.5153	-1606.4951	-1173.1583	1724.3307	-1581.8368	-1133.9758	1581.0767	-1603.8821	-1239.5536	1699.0735	1119.5492	-1308.4277	1699.7148	1070.2788	-1270.4069	1736.271	1096.9493	-1245.5436	1592.7671	1110.7446	988.85645	1664.1826	1162.0927	957.34412	1700.4915	1183.8473	921.89526	1662.2747	1214.9413	939.80316	1659.4778	1159.7155	999.08112	1668.4475	-1579.3983	1058.9435	1670.2013	-1518.6636	1024.995	1708.095	-1551.1412	1059.3173	1672.1978	-1585.3911	-231.39819	1638.9076	-185.79257	-228.88872	1638.3492	-270.24673	-229.70967	1675.4708	-223.68214	-196.22289	1638.5283	-221.44911	-278.76144	1639.9218	-223.89075																																														-1068.6603	210.14275	-1624.9866	-1073.7903	248.79605	-1624.2087	-1321.1678	231.81798	1024.9797	-1319.8109	270.57315	1029.1265	848.00787	183.81841	1196.0923	851.55396	222.58434	1193.72	1088.6725	202.76067	-1428.4884	1082.714	241.0517	-1432.8807	-1171.942	1687.1576	-1581.7737	-1170.6667	1648.1785	-1581.7075	-1270.884	1699.3651	1097.1361	-1271.3885	1660.3689	1097.3335	952.75049	1705.7841	1187.0186	972.73773	1733.9683	1168.9309	1026.5382	1669.2518	-1551.5409	1028.0867	1630.2847	-1551.9418	-230.27905	1638.6586	-223.45575	-230.88222	1599.6639	-223.21593
631	5.25	-1038.1776	214.55043	-1643.954	-1109.4581	204.42682	-1599.3779	-1063.6273	172.82932	-1625.6926	-1054.1305	262.37665	-1634.8568	-1352.543	235.23734	1003.5358	-1281.3403	227.40514	1052.2299	-1322.5638	194.04457	1020.8823	-1284.3691	288.00735	1052.58	814.07288	187.6407	1209.4502	892.28528	178.71339	1178.8597	844.54169	145.43004	1198.3403	861.04309	292.55606	1168.4148	1115.8564	210.03548	-1401.8038	1056.3508	194.11389	-1460.2008	1094.9319	162.10109	-1423.8235	1069.6686	239.53377	-1426.2906	-1204.7343	1686.1124	-1562.8225	-1129.1198	1688.3766	-1605.9423	-1173.1683	1724.3408	-1581.842	-1133.9821	1581.0753	-1603.8801	-1239.5736	1699.0955	1119.5602	-1308.3665	1699.6644	1070.1599	-1270.4274	1736.3041	1096.9575	-1245.5392	1592.726	1110.7185	988.83447	1664.172	1162.087	957.36505	1700.5182	1183.8241	921.86835	1662.2468	1214.9668	939.78229	1659.448	1159.686	999.07587	1668.4619	-1579.4158	1058.9426	1670.1918	-1518.6578	1024.9996	1708.0964	-1551.1324	1059.3191	1672.201	-1585.4004	-231.4021	1638.9309	-185.78781	-228.89742	1638.3657	-270.24875	-229.72746	1675.4685	-223.67159	-196.24562	1638.5154	-221.48117	-278.5769	1639.7233	-223.87349																																														-1068.502	210.24361	-1624.9902	-1073.5397	248.91006	-1624.2645	-1321.2053	231.79022	1024.9669	-1319.8108	270.53903	1029.1603	848.0625	183.76105	1196.156	851.62415	222.53517	1193.9468	1088.6483	202.75557	-1428.5049	1082.7296	241.05077	-1432.9148	-1171.8882	1687.0958	-1581.5531	-1170.5487	1648.12	-1581.2506	-1270.8405	1699.354	1097.1073	-1271.2765	1660.3568	1097.2654	952.80939	1705.7795	1186.9706	972.82062	1733.9347	1168.8641	1026.5392	1669.2554	-1551.5436	1028.0839	1630.2881	-1551.9562	-230.28545	1638.679	-223.44199	-230.87691	1599.6841	-223.19864
